<svg width="708" height="484" viewBox="0 0 708 484" fill="none" xmlns="http://www.w3.org/2000/svg">
<path d="M162.098 91.7396C157.217 92.824 150.861 96.4899 136.804 99.6132C123.332 102.606 114.785 102.866 96.6278 106.901C45.28 118.309 22.2191 148.223 28.3789 175.947C31.5455 190.199 42.8038 201.22 58.8134 197.663C77.7516 193.455 84.1735 174.409 78.7505 166.599C74.4552 167.553 70.4638 164.343 69.2926 159.071C66.5164 146.576 80.9643 137.834 98.3405 133.974C120.598 129.028 128.711 137.879 147.063 133.802C166.978 129.377 174.831 113.086 171.491 98.0526C170.32 92.7811 167.955 90.4382 162.098 91.7396ZM146.454 171.634C142.159 172.589 135.76 174.216 127.408 176.276C128.362 167.664 129.274 158.857 130.055 149.464C130.771 142.543 127.322 139.007 118.732 140.916C112.875 142.217 109.143 145.71 108.123 153.107C106.626 162.045 105.389 172.154 104.066 181.872L95.8657 183.694C87.8608 185.472 85.3009 190.548 86.5589 196.21C87.4698 200.31 90.1163 203 94.802 201.959C96.5592 201.569 98.3597 201.374 100.355 201.135C94.1939 219.509 82.3926 229.097 72.2401 231.353C61.1115 233.825 52.3911 229.616 50.4824 221.026C50.1787 219.659 48.5952 218.987 47.0333 219.334C31.4141 222.804 24.5801 240.917 28.1372 256.927C31.7376 273.132 46.163 287.341 73.3012 281.312C97.7061 275.889 114.996 255.043 121.939 216.213C123.003 210.855 123.827 205.345 124.456 199.878C129.663 199.336 135.216 198.512 141.464 197.124C155.131 194.087 159.101 183.371 157.626 176.733C156.715 172.633 154.264 169.899 146.454 171.634Z" fill="black" fill-opacity="0.2"/>
<path d="M253.265 176.586C250.661 183.311 247.863 188.235 242.005 189.536C233.22 191.488 228.99 188.126 227.775 182.659C225.086 170.554 231.659 160.489 229.186 149.36C226.844 138.817 205.325 130.486 186.972 134.564C176.429 136.906 171.721 147.991 173.5 155.996C175.062 163.025 178.164 164.999 182.372 165.498C181.048 175.216 178.683 187.625 176.145 193.72C174.431 197.994 184.605 202.29 186.015 196.649C187.708 189.512 191.201 174.805 192.98 166.214C201.44 167.408 205.063 171.725 205.497 173.677C207.579 183.049 197.99 204.438 202.024 222.595C204.236 232.552 212.045 241.88 228.055 238.323C254.412 232.467 259.273 191.641 263.135 179.515C264.458 175.328 255.347 171.206 253.265 176.586Z" fill="black" fill-opacity="0.2"/>
<path d="M307.035 220.775C329.683 215.743 346.648 194.355 356.758 158.713C358.081 154.527 348.971 150.405 346.888 155.784C341.095 171.208 326.799 181.555 313.523 184.505C302.394 186.977 292.437 185.502 290.919 178.668C290.355 176.13 292.177 175.111 293.717 175.588C298.772 177.129 304.173 176.543 309.64 175.328C328.774 171.077 337.517 152.335 334.35 138.082C331.487 125.197 320.879 115.261 302.722 119.295C246.689 131.745 252.173 232.965 307.035 220.775ZM301.31 161.813C295.063 163.201 291.31 160.143 290.356 155.847C289.184 150.576 292.612 143.873 300.227 142.181C306.279 140.836 310.032 143.895 310.986 148.191C312.071 153.071 308.925 160.122 301.31 161.813Z" fill="black" fill-opacity="0.2"/>
<path d="M400.689 199.967C423.337 194.935 440.301 173.546 450.412 137.905C451.735 133.718 442.624 129.596 440.542 134.976C434.749 150.4 420.453 160.747 407.177 163.697C396.048 166.169 386.091 164.694 384.573 157.86C384.009 155.322 385.831 154.303 387.371 154.78C392.426 156.32 397.827 155.735 403.294 154.52C422.427 150.269 431.17 131.527 428.004 117.274C425.141 104.388 414.533 94.4526 396.376 98.4868C340.342 110.937 345.827 212.156 400.689 199.967ZM394.964 141.005C388.717 142.393 384.964 139.334 384.009 135.039C382.838 129.768 386.266 123.065 393.88 121.373C399.933 120.028 403.686 123.087 404.64 127.382C405.724 132.263 402.579 139.313 394.964 141.005Z" fill="black" fill-opacity="0.2"/>
<path d="M463.191 186.49C471.782 184.581 466.207 175.166 479.288 172.26C488.855 170.134 488.29 180.504 505.862 176.6C535.929 169.919 544.716 129.245 547.97 116.229C549.771 108.659 542.157 102.975 538.1 113.3C534.043 123.626 523.955 132.628 511.655 135.361C502.089 137.487 497.36 136.489 496.709 133.56C494.887 125.36 531.354 107.834 529.034 72.4955C528.947 70.2611 526.561 68.7425 524.587 70.0006C511.007 78.9593 503.892 74.5987 489.834 77.722C479.877 79.9343 478.011 84.4464 473.326 85.4875C467.273 86.8322 469.616 78.936 461.221 80.8013C457.707 81.5821 456.427 84.1202 456.34 89.2614C456.339 107.701 454.603 120.174 450.242 132.821L460.113 135.75C465.537 119.589 473.26 110.087 485.95 107.268C492.198 105.88 495.517 106.986 496.341 110.696C498.64 121.043 451.37 150.804 457.746 179.505C458.961 184.971 460.848 187.01 463.191 186.49Z" fill="black" fill-opacity="0.2"/>
<path d="M592 157.461C614.648 152.429 631.613 131.04 641.723 95.3991C643.047 91.2124 633.936 87.0904 631.853 92.4702C626.06 107.894 611.764 118.241 598.488 121.19C587.359 123.663 577.402 122.188 575.884 115.354C575.32 112.816 577.142 111.797 578.683 112.274C583.737 113.814 589.139 113.229 594.605 112.014C613.739 107.763 622.482 89.0206 619.315 74.7682C616.452 61.8824 605.844 51.9466 587.687 55.9808C531.654 68.4305 537.138 169.65 592 157.461ZM586.276 98.4991C580.028 99.8872 576.275 96.8284 575.321 92.5331C574.15 87.2616 577.577 80.5586 585.192 78.8669C591.244 77.5221 594.997 80.581 595.951 84.8762C597.036 89.7572 593.89 96.8073 586.276 98.4991Z" fill="black" fill-opacity="0.2"/>
<path d="M149.098 91.7396C144.217 92.824 137.861 96.4899 123.804 99.6132C110.332 102.606 101.785 102.866 83.6278 106.901C32.28 118.309 9.2191 148.223 15.3789 175.947C18.5455 190.199 29.8038 201.22 45.8134 197.663C64.7516 193.455 71.1735 174.409 65.7505 166.599C61.4552 167.553 57.4638 164.343 56.2926 159.071C53.5164 146.576 67.9643 137.834 85.3405 133.974C107.598 129.028 115.711 137.879 134.063 133.802C153.978 129.377 161.831 113.086 158.491 98.0526C157.32 92.7811 154.955 90.4382 149.098 91.7396ZM133.454 171.634C129.159 172.589 122.76 174.216 114.408 176.276C115.362 167.664 116.274 158.857 117.055 149.464C117.771 142.543 114.322 139.007 105.732 140.916C99.8746 142.217 96.1432 145.71 95.1234 153.107C93.6262 162.045 92.3893 172.154 91.0657 181.872L82.8657 183.694C74.8608 185.472 72.3009 190.548 73.5589 196.21C74.4698 200.31 77.1163 203 81.802 201.959C83.5592 201.569 85.3597 201.374 87.3555 201.135C81.1939 219.509 69.3926 229.097 59.2401 231.353C48.1115 233.825 39.3911 229.616 37.4824 221.026C37.1787 219.659 35.5952 218.987 34.0333 219.334C18.4141 222.804 11.5801 240.917 15.1372 256.927C18.7376 273.132 33.163 287.341 60.3012 281.312C84.7061 275.889 101.996 255.043 108.939 216.213C110.003 210.855 110.827 205.345 111.456 199.878C116.663 199.336 122.216 198.512 128.464 197.124C142.131 194.087 146.101 183.371 144.626 176.733C143.715 172.633 141.264 169.899 133.454 171.634Z" fill="black" fill-opacity="0.4"/>
<path d="M240.265 176.586C237.661 183.311 234.863 188.235 229.005 189.536C220.22 191.488 215.99 188.126 214.775 182.659C212.086 170.554 218.659 160.489 216.186 149.36C213.844 138.817 192.325 130.486 173.972 134.564C163.429 136.906 158.721 147.991 160.5 155.996C162.062 163.025 165.164 164.999 169.372 165.498C168.048 175.216 165.683 187.625 163.145 193.72C161.431 197.994 171.605 202.29 173.015 196.649C174.708 189.512 178.201 174.805 179.98 166.214C188.44 167.408 192.063 171.725 192.497 173.677C194.579 183.049 184.99 204.438 189.024 222.595C191.236 232.552 199.045 241.88 215.055 238.323C241.412 232.467 246.273 191.641 250.135 179.515C251.458 175.328 242.347 171.206 240.265 176.586Z" fill="black" fill-opacity="0.4"/>
<path d="M294.035 220.775C316.683 215.743 333.648 194.355 343.758 158.713C345.081 154.527 335.971 150.405 333.888 155.784C328.095 171.208 313.799 181.555 300.523 184.505C289.394 186.977 279.437 185.502 277.919 178.668C277.355 176.13 279.177 175.111 280.717 175.588C285.772 177.129 291.173 176.543 296.64 175.328C315.774 171.077 324.517 152.335 321.35 138.082C318.487 125.197 307.879 115.261 289.722 119.295C233.689 131.745 239.173 232.965 294.035 220.775ZM288.31 161.813C282.063 163.201 278.31 160.143 277.356 155.847C276.184 150.576 279.612 143.873 287.227 142.181C293.279 140.836 297.032 143.895 297.986 148.191C299.071 153.071 295.925 160.122 288.31 161.813Z" fill="black" fill-opacity="0.4"/>
<path d="M387.689 199.967C410.337 194.935 427.301 173.546 437.412 137.905C438.735 133.718 429.624 129.596 427.542 134.976C421.749 150.4 407.453 160.747 394.177 163.697C383.048 166.169 373.091 164.694 371.573 157.86C371.009 155.322 372.831 154.303 374.371 154.78C379.426 156.32 384.827 155.735 390.294 154.52C409.427 150.269 418.17 131.527 415.004 117.274C412.141 104.388 401.533 94.4526 383.376 98.4868C327.342 110.937 332.827 212.156 387.689 199.967ZM381.964 141.005C375.717 142.393 371.964 139.334 371.009 135.039C369.838 129.768 373.266 123.065 380.88 121.373C386.933 120.028 390.686 123.087 391.64 127.382C392.724 132.263 389.579 139.313 381.964 141.005Z" fill="black" fill-opacity="0.4"/>
<path d="M450.191 186.49C458.782 184.581 453.207 175.166 466.288 172.26C475.855 170.134 475.29 180.504 492.862 176.6C522.929 169.919 531.716 129.245 534.97 116.229C536.771 108.659 529.157 102.975 525.1 113.3C521.043 123.626 510.955 132.628 498.655 135.361C489.089 137.487 484.36 136.489 483.709 133.56C481.887 125.36 518.354 107.834 516.034 72.4955C515.947 70.2611 513.561 68.7425 511.587 70.0006C498.007 78.9593 490.892 74.5987 476.834 77.722C466.877 79.9343 465.011 84.4464 460.326 85.4875C454.273 86.8322 456.616 78.936 448.221 80.8013C444.707 81.5821 443.427 84.1202 443.34 89.2614C443.339 107.701 441.603 120.174 437.242 132.821L447.113 135.75C452.537 119.589 460.26 110.087 472.95 107.268C479.198 105.88 482.517 106.986 483.341 110.696C485.64 121.043 438.37 150.804 444.746 179.505C445.961 184.971 447.848 187.01 450.191 186.49Z" fill="black" fill-opacity="0.4"/>
<path d="M579 157.461C601.648 152.429 618.613 131.04 628.723 95.3991C630.047 91.2124 620.936 87.0904 618.853 92.4702C613.06 107.894 598.764 118.241 585.488 121.19C574.359 123.663 564.402 122.188 562.884 115.354C562.32 112.816 564.142 111.797 565.683 112.274C570.737 113.814 576.139 113.229 581.605 112.014C600.739 107.763 609.482 89.0206 606.315 74.7682C603.452 61.8824 592.844 51.9466 574.687 55.9808C518.654 68.4305 524.138 169.65 579 157.461ZM573.276 98.4991C567.028 99.8872 563.275 96.8284 562.321 92.5331C561.15 87.2616 564.577 80.5586 572.192 78.8669C578.244 77.5221 581.997 80.581 582.951 84.8762C584.036 89.7572 580.89 96.8073 573.276 98.4991Z" fill="black" fill-opacity="0.4"/>
<path d="M149.098 83.7396C144.217 84.824 137.861 88.4899 123.804 91.6132C110.332 94.6063 101.785 94.8663 83.6278 98.9005C32.28 110.309 9.2191 140.223 15.3789 167.947C18.5455 182.199 29.8038 193.22 45.8134 189.663C64.7516 185.455 71.1735 166.409 65.7505 158.599C61.4552 159.553 57.4638 156.343 56.2926 151.071C53.5164 138.576 67.9643 129.834 85.3405 125.974C107.598 121.028 115.711 129.879 134.063 125.802C153.978 121.377 161.831 105.086 158.491 90.0526C157.32 84.7811 154.955 82.4382 149.098 83.7396ZM133.454 163.634C129.159 164.589 122.76 166.216 114.408 168.276C115.362 159.664 116.274 150.857 117.055 141.464C117.771 134.543 114.322 131.007 105.732 132.916C99.8746 134.217 96.1432 137.71 95.1234 145.107C93.6262 154.045 92.3893 164.154 91.0657 173.872L82.8657 175.694C74.8608 177.472 72.3009 182.548 73.5589 188.21C74.4698 192.31 77.1163 195 81.802 193.959C83.5592 193.569 85.3597 193.374 87.3555 193.135C81.1939 211.509 69.3926 221.097 59.2401 223.353C48.1115 225.825 39.3911 221.616 37.4824 213.026C37.1787 211.659 35.5952 210.987 34.0333 211.334C18.4141 214.804 11.5801 232.917 15.1372 248.927C18.7376 265.132 33.163 279.341 60.3012 273.312C84.7061 267.889 101.996 247.043 108.939 208.213C110.003 202.855 110.827 197.345 111.456 191.878C116.663 191.336 122.216 190.512 128.464 189.124C142.131 186.087 146.101 175.371 144.626 168.733C143.715 164.633 141.264 161.899 133.454 163.634Z" fill="#77B2F8"/>
<path d="M240.265 168.586C237.661 175.311 234.863 180.235 229.005 181.536C220.22 183.488 215.99 180.126 214.775 174.659C212.086 162.554 218.659 152.489 216.186 141.36C213.844 130.817 192.325 122.486 173.972 126.564C163.429 128.906 158.721 139.991 160.5 147.996C162.062 155.025 165.164 156.999 169.372 157.498C168.048 167.216 165.683 179.625 163.145 185.72C161.431 189.994 171.605 194.29 173.015 188.649C174.708 181.512 178.201 166.805 179.98 158.214C188.44 159.408 192.063 163.725 192.497 165.677C194.579 175.049 184.99 196.438 189.024 214.595C191.236 224.552 199.045 233.88 215.055 230.323C241.412 224.467 246.273 183.641 250.135 171.515C251.458 167.328 242.347 163.206 240.265 168.586Z" fill="#77B2F8"/>
<path d="M294.035 212.775C316.683 207.743 333.648 186.355 343.758 150.713C345.081 146.527 335.971 142.405 333.888 147.784C328.095 163.208 313.799 173.555 300.523 176.505C289.394 178.977 279.437 177.502 277.919 170.668C277.355 168.13 279.177 167.111 280.717 167.588C285.772 169.129 291.173 168.543 296.64 167.328C315.774 163.077 324.517 144.335 321.35 130.082C318.487 117.197 307.879 107.261 289.722 111.295C233.689 123.745 239.173 224.965 294.035 212.775ZM288.31 153.813C282.063 155.201 278.31 152.143 277.356 147.847C276.184 142.576 279.612 135.873 287.227 134.181C293.279 132.836 297.032 135.895 297.986 140.191C299.071 145.071 295.925 152.122 288.31 153.813Z" fill="#77B2F8"/>
<path d="M387.689 191.967C410.337 186.935 427.301 165.546 437.412 129.905C438.735 125.718 429.624 121.596 427.542 126.976C421.749 142.4 407.453 152.747 394.177 155.697C383.048 158.169 373.091 156.694 371.573 149.86C371.009 147.322 372.831 146.303 374.371 146.78C379.426 148.32 384.827 147.735 390.294 146.52C409.427 142.269 418.17 123.527 415.004 109.274C412.141 96.3884 401.533 86.4526 383.376 90.4868C327.342 102.937 332.827 204.156 387.689 191.967ZM381.964 133.005C375.717 134.393 371.964 131.334 371.009 127.039C369.838 121.768 373.266 115.065 380.88 113.373C386.933 112.028 390.686 115.087 391.64 119.382C392.724 124.263 389.579 131.313 381.964 133.005Z" fill="#77B2F8"/>
<path d="M450.191 178.49C458.782 176.581 453.207 167.166 466.288 164.26C475.855 162.134 475.29 172.504 492.862 168.6C522.929 161.919 531.716 121.245 534.97 108.229C536.771 100.659 529.157 94.9747 525.1 105.3C521.043 115.626 510.955 124.628 498.655 127.361C489.089 129.487 484.36 128.489 483.709 125.56C481.887 117.36 518.354 99.8335 516.034 64.4955C515.947 62.2611 513.561 60.7425 511.587 62.0006C498.007 70.9593 490.892 66.5987 476.834 69.722C466.877 71.9343 465.011 76.4464 460.326 77.4875C454.273 78.8322 456.616 70.936 448.221 72.8013C444.707 73.5821 443.427 76.1202 443.34 81.2614C443.339 99.7005 441.603 112.174 437.242 124.821L447.113 127.75C452.537 111.589 460.26 102.087 472.95 99.2678C479.198 97.8797 482.517 98.9861 483.341 102.696C485.64 113.043 438.37 142.804 444.746 171.505C445.961 176.971 447.848 179.01 450.191 178.49Z" fill="#77B2F8"/>
<path d="M579 149.461C601.648 144.429 618.613 123.04 628.723 87.3991C630.047 83.2124 620.936 79.0904 618.853 84.4702C613.06 99.8937 598.764 110.241 585.488 113.19C574.359 115.663 564.402 114.188 562.884 107.354C562.32 104.816 564.142 103.797 565.683 104.274C570.737 105.814 576.139 105.229 581.605 104.014C600.739 99.7631 609.482 81.0206 606.315 66.7682C603.452 53.8824 592.844 43.9466 574.687 47.9808C518.654 60.4305 524.138 161.65 579 149.461ZM573.276 90.4991C567.028 91.8872 563.275 88.8284 562.321 84.5331C561.15 79.2616 564.577 72.5586 572.192 70.8669C578.244 69.5221 581.997 72.581 582.951 76.8762C584.036 81.7572 580.89 88.8073 573.276 90.4991Z" fill="#77B2F8"/>
<path d="M198.154 427.314C218.263 422.846 232.234 406.425 238.656 383.691C243.233 399.679 255.337 408.053 271.542 404.453C302.78 397.512 320.289 348.139 311.049 306.553C303.675 273.363 280.421 248.003 230.635 259.064C185.925 268.998 160.781 304.292 168.199 337.677C171.496 352.516 182.928 364.317 198.937 360.76C217.875 356.552 224.515 329.263 218.874 329.696C214.579 330.651 210.501 327.049 209.243 321.387C204.775 301.278 221.023 288.653 239.376 284.576C266.319 278.589 277.187 291.54 280.874 308.136C285.993 331.174 279.549 360.264 262.563 364.038C255.925 365.513 252.324 362.215 251.196 357.139C248.593 345.425 257.011 315.077 256.925 301.779C256.86 295.032 254.192 291.323 245.992 293.145C240.135 294.446 236.403 297.938 235.384 305.336C233.93 314.468 232.433 325.25 231.066 334.773C227.095 360.24 213.883 373.625 201.778 376.314C191.04 378.7 181.344 374.708 179.435 366.117C179.131 364.751 177.548 364.078 175.986 364.425C160.367 367.896 153.533 386.009 157.09 402.019C160.69 418.223 174.139 432.65 198.154 427.314Z" fill="black" fill-opacity="0.2"/>
<path d="M359.835 382.787C373.697 379.707 382.592 364.413 386.888 346.864L387.669 346.69C388.927 363.416 397.321 374.458 410.793 371.465C432.464 366.65 436.435 333.807 441.968 313.524C443.096 309.38 433.985 305.258 432.098 310.595C429.581 317.71 425.524 322.504 418.886 323.979C410.296 325.888 406.413 318.555 409.884 302.828C411.664 290.55 415.395 283.369 413.747 275.95C412.792 271.655 410.385 269.117 405.308 270.245C396.132 272.284 396.414 280.006 389.971 281.438C384.895 282.566 384.027 274.973 368.408 278.443C334.827 285.904 327.146 330.635 333.176 357.773C337.036 375.15 346.559 385.736 359.835 382.787ZM370.38 338.034C364.328 339.379 359.75 336.298 358.276 329.66C356.367 321.07 360.684 310.071 370.837 307.816C377.084 306.428 381.857 309.465 383.288 315.908C385.11 324.108 380.532 335.779 370.38 338.034Z" fill="black" fill-opacity="0.2"/>
<path d="M468.91 358.552C497.024 352.306 503.729 311.479 507.114 299.05C508.242 294.906 499.37 290.936 497.243 296.121C494.683 303.041 489.26 308.138 481.45 309.873C469.931 312.433 461.97 305.187 463.034 290.609C463.837 276.704 464.922 276.053 483.079 272.019C490.888 270.284 489.24 251.801 483.969 252.973L473.817 255.228C470.107 256.052 469.955 252.603 471.496 245.705C474.815 232.06 470.932 226.572 463.709 228.177C458.828 229.261 454.923 231.973 452.753 244.338C451.581 251.973 447.069 261.171 435.745 263.687C431.254 264.685 434.79 279.675 446.114 277.159C444.226 291.715 442.49 304.188 441.34 314.688C438.106 341.63 447.043 363.411 468.91 358.552Z" fill="black" fill-opacity="0.2"/>
<path d="M551.141 340.282C573.788 335.25 590.753 313.861 600.864 278.22C602.187 274.033 593.076 269.911 590.993 275.291C585.201 290.715 570.905 301.062 557.628 304.011C546.5 306.484 536.543 305.008 535.024 298.175C534.46 295.637 536.283 294.617 537.823 295.095C542.877 296.635 548.279 296.05 553.746 294.835C572.879 290.584 581.622 271.841 578.455 257.589C575.592 244.703 564.985 234.767 546.828 238.802C490.794 251.251 496.279 352.471 551.141 340.282ZM545.416 281.32C539.168 282.708 535.416 279.649 534.461 275.354C533.29 270.082 536.718 263.379 544.332 261.688C550.384 260.343 554.137 263.402 555.092 267.697C556.176 272.578 553.03 279.628 545.416 281.32Z" fill="black" fill-opacity="0.2"/>
<path d="M186.154 427.314C206.263 422.846 220.234 406.425 226.656 383.691C231.233 399.679 243.337 408.053 259.542 404.453C290.78 397.512 308.289 348.139 299.049 306.553C291.675 273.363 268.421 248.003 218.635 259.064C173.925 268.998 148.781 304.292 156.199 337.677C159.496 352.516 170.928 364.317 186.937 360.76C205.875 356.552 212.515 329.263 206.874 329.696C202.579 330.651 198.501 327.049 197.243 321.387C192.775 301.278 209.023 288.653 227.376 284.576C254.319 278.589 265.187 291.54 268.874 308.136C273.993 331.174 267.549 360.264 250.563 364.038C243.925 365.513 240.324 362.215 239.196 357.139C236.593 345.425 245.011 315.077 244.925 301.779C244.86 295.032 242.192 291.323 233.992 293.145C228.135 294.446 224.403 297.938 223.384 305.336C221.93 314.468 220.433 325.25 219.066 334.773C215.095 360.24 201.883 373.625 189.778 376.314C179.04 378.7 169.344 374.708 167.435 366.117C167.131 364.751 165.548 364.078 163.986 364.425C148.367 367.896 141.533 386.009 145.09 402.019C148.69 418.223 162.139 432.65 186.154 427.314Z" fill="black" fill-opacity="0.4"/>
<path d="M347.835 382.787C361.697 379.707 370.592 364.413 374.888 346.864L375.669 346.69C376.927 363.416 385.321 374.458 398.793 371.465C420.464 366.65 424.435 333.807 429.968 313.524C431.096 309.38 421.985 305.258 420.098 310.595C417.581 317.71 413.524 322.504 406.886 323.979C398.296 325.888 394.413 318.555 397.884 302.828C399.664 290.55 403.395 283.369 401.747 275.95C400.792 271.655 398.385 269.117 393.308 270.245C384.132 272.284 384.414 280.006 377.971 281.438C372.895 282.566 372.027 274.973 356.408 278.443C322.827 285.904 315.146 330.635 321.176 357.773C325.036 375.15 334.559 385.736 347.835 382.787ZM358.38 338.034C352.328 339.379 347.75 336.298 346.276 329.66C344.367 321.07 348.684 310.071 358.837 307.816C365.084 306.428 369.857 309.465 371.288 315.908C373.11 324.108 368.532 335.779 358.38 338.034Z" fill="black" fill-opacity="0.4"/>
<path d="M456.91 358.552C485.024 352.306 491.729 311.479 495.114 299.05C496.242 294.906 487.37 290.936 485.243 296.121C482.683 303.041 477.26 308.138 469.45 309.873C457.931 312.433 449.97 305.187 451.034 290.609C451.837 276.704 452.922 276.053 471.079 272.019C478.888 270.284 477.24 251.801 471.969 252.973L461.817 255.228C458.107 256.052 457.955 252.603 459.496 245.705C462.815 232.06 458.932 226.572 451.709 228.177C446.828 229.261 442.923 231.973 440.753 244.338C439.581 251.973 435.069 261.171 423.745 263.687C419.254 264.685 422.79 279.675 434.114 277.159C432.226 291.715 430.49 304.188 429.34 314.688C426.106 341.63 435.043 363.411 456.91 358.552Z" fill="black" fill-opacity="0.4"/>
<path d="M539.141 340.282C561.788 335.25 578.753 313.861 588.864 278.22C590.187 274.033 581.076 269.911 578.993 275.291C573.201 290.715 558.905 301.062 545.628 304.011C534.5 306.484 524.543 305.008 523.024 298.175C522.46 295.637 524.283 294.617 525.823 295.095C530.877 296.635 536.279 296.05 541.746 294.835C560.879 290.584 569.622 271.841 566.455 257.589C563.592 244.703 552.985 234.767 534.828 238.802C478.794 251.251 484.279 352.471 539.141 340.282ZM533.416 281.32C527.168 282.708 523.416 279.649 522.461 275.354C521.29 270.082 524.718 263.379 532.332 261.688C538.384 260.343 542.137 263.402 543.092 267.697C544.176 272.578 541.03 279.628 533.416 281.32Z" fill="black" fill-opacity="0.4"/>
<path d="M186.154 417.314C206.263 412.846 220.234 396.425 226.656 373.691C231.233 389.679 243.337 398.053 259.542 394.453C290.78 387.512 308.289 338.139 299.049 296.553C291.675 263.363 268.421 238.003 218.635 249.064C173.925 258.998 148.781 294.292 156.199 327.677C159.496 342.516 170.928 354.317 186.937 350.76C205.875 346.552 212.515 319.263 206.874 319.696C202.579 320.651 198.501 317.049 197.243 311.387C192.775 291.278 209.023 278.653 227.376 274.576C254.319 268.589 265.187 281.54 268.874 298.136C273.993 321.174 267.549 350.264 250.563 354.038C243.925 355.513 240.324 352.215 239.196 347.139C236.593 335.425 245.011 305.077 244.925 291.779C244.86 285.032 242.192 281.323 233.992 283.145C228.135 284.446 224.403 287.938 223.384 295.336C221.93 304.468 220.433 315.25 219.066 324.773C215.095 350.24 201.883 363.625 189.778 366.314C179.04 368.7 169.344 364.708 167.435 356.117C167.131 354.751 165.548 354.078 163.986 354.425C148.367 357.896 141.533 376.009 145.09 392.019C148.69 408.223 162.139 422.65 186.154 417.314Z" fill="#F68196"/>
<path d="M347.835 372.787C361.697 369.707 370.592 354.413 374.888 336.864L375.669 336.69C376.927 353.416 385.321 364.458 398.793 361.465C420.464 356.65 424.435 323.807 429.968 303.524C431.096 299.38 421.985 295.258 420.098 300.595C417.581 307.71 413.524 312.504 406.886 313.979C398.296 315.888 394.413 308.555 397.884 292.828C399.664 280.55 403.395 273.369 401.747 265.95C400.792 261.655 398.385 259.117 393.308 260.245C384.132 262.284 384.414 270.006 377.971 271.438C372.895 272.566 372.027 264.973 356.408 268.443C322.827 275.904 315.146 320.635 321.176 347.773C325.036 365.15 334.559 375.736 347.835 372.787ZM358.38 328.034C352.328 329.379 347.75 326.298 346.276 319.66C344.367 311.07 348.684 300.071 358.837 297.816C365.084 296.428 369.857 299.465 371.288 305.908C373.11 314.108 368.532 325.779 358.38 328.034Z" fill="#F68196"/>
<path d="M456.91 348.552C485.024 342.306 491.729 301.479 495.114 289.05C496.242 284.906 487.37 280.936 485.243 286.121C482.683 293.041 477.26 298.138 469.45 299.873C457.931 302.433 449.97 295.187 451.034 280.609C451.837 266.704 452.922 266.053 471.079 262.019C478.888 260.284 477.24 241.801 471.969 242.973L461.817 245.228C458.107 246.052 457.955 242.603 459.496 235.705C462.815 222.06 458.932 216.572 451.709 218.177C446.828 219.261 442.923 221.973 440.753 234.338C439.581 241.973 435.069 251.171 423.745 253.687C419.254 254.685 422.79 269.675 434.114 267.159C432.226 281.715 430.49 294.188 429.34 304.688C426.106 331.63 435.043 353.411 456.91 348.552Z" fill="#F68196"/>
<path d="M539.141 330.282C561.788 325.25 578.753 303.861 588.864 268.22C590.187 264.033 581.076 259.911 578.993 265.291C573.201 280.715 558.905 291.062 545.628 294.011C534.5 296.484 524.543 295.008 523.024 288.175C522.46 285.637 524.283 284.617 525.823 285.095C530.877 286.635 536.279 286.05 541.746 284.835C560.879 280.584 569.622 261.841 566.455 247.589C563.592 234.703 552.985 224.767 534.828 228.802C478.794 241.251 484.279 342.471 539.141 330.282ZM533.416 271.32C527.168 272.708 523.416 269.649 522.461 265.354C521.29 260.082 524.718 253.379 532.332 251.688C538.384 250.343 542.137 253.402 543.092 257.697C544.176 262.578 541.03 269.628 533.416 271.32Z" fill="#F68196"/>
<path d="M383.803 280.387C408.6 274.878 418.07 254.638 416.127 226.121C415.329 214.922 416.092 209.232 416.593 203.376C417.524 191.342 423.357 181.598 421.652 174.43C420.662 169.468 417.191 167.536 412.79 168.514C409.355 169.277 404.56 172.032 403.391 192.117C402.245 209.268 400.098 219.883 391.403 221.814C387.753 222.625 385.523 220.192 384.521 215.684C382.47 206.452 387.528 189.671 396.223 183.684C397.714 173.665 389.055 171.196 376.711 173.939C346.977 180.545 331.614 199.616 335.501 217.113C337.123 224.412 343.218 230.042 352.02 228.086C362.432 225.773 365.963 215.301 362.981 211.007C360.62 211.532 358.378 209.552 357.686 206.439C355.611 197.1 365.594 189.813 383.664 186.475C373.358 194.847 366.023 218.104 369.004 231.522C371.317 241.934 378.163 248.411 387.717 246.288C396.411 244.357 403.139 236.103 403.974 223.64C404.129 221.803 405.93 221.29 406.335 223.115C407.48 228.267 407.945 249.116 387.657 253.623C374.99 256.438 368.192 249.162 367.023 241.875C366.737 240.586 366.069 239.608 362.849 240.324C342.132 244.927 346.77 288.616 383.803 280.387Z" fill="black" fill-opacity="0.4"/>
<path d="M478.386 204.291C476.644 208.62 474.08 210.767 470.967 211.458L470.215 211.625C470.502 207.845 470.204 203.968 469.369 200.211C466.364 186.686 458.397 183.275 449.595 185.23C432.527 189.022 424.416 211.326 427.993 227.427C430.474 238.591 438.977 243.911 448.638 241.764C456.689 239.975 463.261 233.559 467.007 225.067L468.295 224.781C478.707 222.467 482.154 213.141 483.812 205.901C484.445 203.17 479.268 202.18 478.386 204.291ZM449.82 218.184C445.741 219.091 443.642 216.741 442.95 213.628C441.901 208.905 444.275 202.858 449.534 201.689C453.721 200.759 456.011 202.954 456.702 206.067C457.704 210.575 455.187 216.992 449.82 218.184Z" fill="black" fill-opacity="0.4"/>
<path d="M537.38 191.183C535.949 194.88 534.41 197.588 531.19 198.303C528.291 198.947 525.31 197.695 524.403 193.616C523.211 188.249 526.229 179.017 524.893 173.006C524.202 169.893 522.758 168.975 520.612 169.452C515.137 170.668 512.429 179.267 511.153 194.307L511.141 194.76C510.508 200.533 507.658 203.419 503.793 204.278C500.251 205.065 498.879 203.454 498.212 200.449C496.804 194.116 500.037 185.85 498.487 178.873C497.867 176.082 496.567 174.794 494.205 175.319C488.194 176.654 485.164 186.339 483.708 203.108C483.112 210.562 484.304 216.943 485.02 220.164C486.975 228.966 491.507 232.127 497.304 230.839C505.677 228.978 509.184 219.413 511.033 211.005C511.176 212.663 511.378 214.082 511.689 215.477C513.382 223.099 517.186 226.534 523.52 225.127C538.011 221.907 540.684 199.461 542.807 192.793C543.534 190.492 538.525 188.225 537.38 191.183Z" fill="black" fill-opacity="0.4"/>
<path d="M585.148 180.57C583.717 184.267 582.178 186.975 578.958 187.69C574.127 188.763 571.801 186.915 571.134 183.909C569.655 177.254 573.269 171.72 571.91 165.601C570.622 159.805 558.79 155.224 548.7 157.466C542.904 158.754 540.315 164.848 541.293 169.25C542.152 173.114 543.857 174.199 546.171 174.474C545.443 179.817 544.143 186.639 542.747 189.991C541.805 192.34 547.399 194.702 548.174 191.601C549.104 187.677 551.025 179.591 552.003 174.868C556.655 175.524 558.646 177.897 558.885 178.971C560.03 184.123 554.758 195.883 556.976 205.866C558.192 211.34 562.485 216.469 571.288 214.514C585.779 211.294 588.451 188.847 590.575 182.18C591.302 179.878 586.293 177.612 585.148 180.57Z" fill="black" fill-opacity="0.4"/>
<path d="M394.25 280.387C419.046 274.878 428.517 254.638 426.574 226.121C425.775 214.922 426.539 209.232 427.04 203.376C427.97 191.342 433.803 181.598 432.098 174.43C431.108 169.468 427.637 167.536 423.236 168.514C419.801 169.277 415.007 172.032 413.837 192.117C412.691 209.268 410.544 219.883 401.849 221.814C398.2 222.625 395.969 220.192 394.968 215.684C392.917 206.452 397.974 189.671 406.669 183.684C408.16 173.665 399.502 171.196 387.157 173.939C357.423 180.545 342.06 199.616 345.948 217.113C347.57 224.412 353.664 230.042 362.466 228.086C372.879 225.773 376.409 215.301 373.428 211.007C371.066 211.532 368.824 209.552 368.132 206.439C366.057 197.1 376.041 189.813 394.11 186.475C383.805 194.847 376.469 218.104 379.45 231.522C381.763 241.934 388.609 248.411 398.163 246.288C406.858 244.357 413.585 236.103 414.42 223.64C414.575 221.803 416.376 221.29 416.782 223.115C417.927 228.267 418.391 249.116 398.103 253.623C385.436 256.438 378.638 249.162 377.47 241.875C377.184 240.586 376.516 239.608 373.295 240.324C352.578 244.927 357.216 288.616 394.25 280.387Z" fill="black" fill-opacity="0.2"/>
<path d="M488.832 204.291C487.09 208.62 484.526 210.767 481.413 211.458L480.662 211.625C480.948 207.845 480.65 203.968 479.815 200.211C476.81 186.686 468.843 183.275 460.041 185.23C442.973 189.022 434.862 211.326 438.44 227.427C440.92 238.591 449.424 243.911 459.085 241.764C467.135 239.975 473.707 233.559 477.453 225.067L478.741 224.781C489.153 222.467 492.601 213.141 494.259 205.901C494.891 203.17 489.715 202.18 488.832 204.291ZM460.266 218.184C456.187 219.091 454.088 216.741 453.397 213.628C452.347 208.905 454.721 202.858 459.981 201.689C464.167 200.759 466.457 202.954 467.149 206.067C468.15 210.575 465.633 216.992 460.266 218.184Z" fill="black" fill-opacity="0.2"/>
<path d="M547.826 191.183C546.395 194.88 544.856 197.588 541.636 198.303C538.738 198.947 535.756 197.695 534.85 193.616C533.657 188.249 536.675 179.017 535.34 173.006C534.648 169.893 533.205 168.975 531.058 169.452C525.583 170.668 522.876 179.267 521.599 194.307L521.587 194.76C520.955 200.533 518.104 203.419 514.24 204.278C510.697 205.065 509.326 203.454 508.658 200.449C507.251 194.116 510.483 185.85 508.933 178.873C508.313 176.082 507.013 174.794 504.651 175.319C498.64 176.654 495.61 186.339 494.155 203.108C493.558 210.562 494.75 216.943 495.466 220.164C497.422 228.966 501.954 232.127 507.75 230.839C516.123 228.978 519.63 219.413 521.479 211.005C521.622 212.663 521.825 214.082 522.135 215.477C523.828 223.099 527.633 226.534 533.966 225.127C548.457 221.907 551.13 199.461 553.253 192.793C553.981 190.492 548.972 188.225 547.826 191.183Z" fill="black" fill-opacity="0.2"/>
<path d="M595.594 180.57C594.163 184.267 592.624 186.975 589.404 187.69C584.573 188.763 582.248 186.915 581.58 183.909C580.101 177.254 583.715 171.72 582.356 165.601C581.068 159.805 569.237 155.224 559.146 157.466C553.35 158.754 550.761 164.848 551.739 169.25C552.598 173.114 554.303 174.199 556.617 174.474C555.889 179.817 554.589 186.639 553.194 189.991C552.251 192.34 557.845 194.702 558.62 191.601C559.551 187.677 561.471 179.591 562.449 174.868C567.101 175.524 569.093 177.897 569.331 178.971C570.476 184.123 565.204 195.883 567.422 205.866C568.638 211.34 572.932 216.469 581.734 214.514C596.225 211.294 598.898 188.847 601.021 182.18C601.749 179.878 596.739 177.612 595.594 180.57Z" fill="black" fill-opacity="0.2"/>
<path d="M380.504 280.387C405.301 274.878 414.772 254.638 412.829 226.121C412.03 214.922 412.793 209.232 413.295 203.376C414.225 191.342 420.058 181.598 418.353 174.43C417.363 169.468 413.892 167.536 409.491 168.514C406.056 169.277 401.261 172.032 400.092 192.117C398.946 209.268 396.799 219.883 388.104 221.814C384.454 222.625 382.224 220.192 381.223 215.684C379.171 206.452 384.229 189.671 392.924 183.684C394.415 173.665 385.756 171.196 373.412 173.939C343.678 180.545 328.315 199.616 332.203 217.113C333.824 224.412 339.919 230.042 348.721 228.086C359.133 225.773 362.664 215.301 359.683 211.007C357.321 211.532 355.079 209.552 354.387 206.439C352.312 197.1 362.295 189.813 380.365 186.475C370.06 194.847 362.724 218.104 365.705 231.522C368.018 241.934 374.864 248.411 384.418 246.288C393.113 244.357 399.84 236.103 400.675 223.64C400.83 221.803 402.631 221.29 403.037 223.115C404.181 228.267 404.646 249.116 384.358 253.623C371.691 256.438 364.893 249.162 363.725 241.875C363.438 240.586 362.771 239.608 359.55 240.324C338.833 244.927 343.471 288.616 380.504 280.387Z" fill="#FFF388"/>
<path d="M475.087 204.291C473.345 208.62 470.781 210.767 467.668 211.458L466.917 211.625C467.203 207.845 466.905 203.968 466.07 200.211C463.065 186.686 455.098 183.275 446.296 185.23C429.228 189.022 421.117 211.326 424.695 227.427C427.175 238.591 435.679 243.911 445.34 241.764C453.39 239.975 459.962 233.559 463.708 225.067L464.996 224.781C475.408 222.467 478.855 213.141 480.514 205.901C481.146 203.17 475.969 202.18 475.087 204.291ZM446.521 218.184C442.442 219.091 440.343 216.741 439.651 213.628C438.602 208.905 440.976 202.858 446.236 201.689C450.422 200.759 452.712 202.954 453.404 206.067C454.405 210.575 451.888 216.992 446.521 218.184Z" fill="#FFF388"/>
<path d="M534.081 191.183C532.65 194.88 531.111 197.588 527.891 198.303C524.993 198.947 522.011 197.695 521.105 193.616C519.912 188.249 522.93 179.017 521.594 173.006C520.903 169.893 519.46 168.975 517.313 169.452C511.838 170.668 509.131 179.267 507.854 194.307L507.842 194.76C507.209 200.533 504.359 203.419 500.494 204.278C496.952 205.065 495.581 203.454 494.913 200.449C493.506 194.116 496.738 185.85 495.188 178.873C494.568 176.082 493.268 174.794 490.906 175.319C484.895 176.654 481.865 186.339 480.41 203.108C479.813 210.562 481.005 216.943 481.721 220.164C483.677 228.966 488.209 232.127 494.005 230.839C502.378 228.978 505.885 219.413 507.734 211.005C507.877 212.663 508.08 214.082 508.39 215.477C510.083 223.099 513.888 226.534 520.221 225.127C534.712 221.907 537.385 199.461 539.508 192.793C540.236 190.492 535.226 188.225 534.081 191.183Z" fill="#FFF388"/>
<path d="M581.849 180.57C580.418 184.267 578.879 186.975 575.659 187.69C570.828 188.763 568.503 186.915 567.835 183.909C566.356 177.254 569.97 171.72 568.611 165.601C567.323 159.805 555.492 155.224 545.401 157.466C539.605 158.754 537.016 164.848 537.994 169.25C538.853 173.114 540.558 174.199 542.872 174.474C542.144 179.817 540.844 186.639 539.448 189.991C538.506 192.34 544.1 194.702 544.875 191.601C545.806 187.677 547.726 179.591 548.704 174.868C553.356 175.524 555.348 177.897 555.586 178.971C556.731 184.123 551.459 195.883 553.677 205.866C554.893 211.34 559.187 216.469 567.989 214.514C582.48 211.294 585.153 188.847 587.276 182.18C588.003 179.878 582.994 177.612 581.849 180.57Z" fill="#FFF388"/>
</svg>
